<svg xmlns="http://www.w3.org/2000/svg" xmlns:xlink="http://www.w3.org/1999/xlink" width="508" zoomAndPan="magnify" viewBox="0 0 381 335.249999" height="447" preserveAspectRatio="xMidYMid meet" version="1.0"><defs><filter x="0%" y="0%" width="100%" height="100%" id="499d6966a0"><feColorMatrix values="0 0 0 0 1 0 0 0 0 1 0 0 0 0 1 0 0 0 1 0" color-interpolation-filters="sRGB"/></filter><clipPath id="6ae64e4b9f"><path d="M 0.425781 0 L 380.574219 0 L 380.574219 334.5 L 0.425781 334.5 Z M 0.425781 0 " clip-rule="nonzero"/></clipPath><clipPath id="d4d77439aa"><path d="M 23 8 L 357 8 L 357 334.5 L 23 334.5 Z M 23 8 " clip-rule="nonzero"/></clipPath><mask id="a77177169d"><g filter="url(#499d6966a0)"><rect x="-38.1" width="457.2" fill="#000000" y="-33.525" height="402.299998" fill-opacity="0.098"/></g></mask><clipPath id="3e027d5371"><path d="M 1.054688 1.066406 L 333.660156 1.066406 L 333.660156 326.25 L 1.054688 326.25 Z M 1.054688 1.066406 " clip-rule="nonzero"/></clipPath><clipPath id="64c54c8ac0"><rect x="0" width="334" y="0" height="327"/></clipPath><clipPath id="b18644aa93"><path d="M 1 0.554688 L 380.21875 0.554688 L 380.21875 334.308594 L 1 334.308594 Z M 1 0.554688 " clip-rule="nonzero"/></clipPath></defs><g clip-path="url(#6ae64e4b9f)"><path fill="#ffffff" d="M 0.425781 0 L 380.574219 0 L 380.574219 341.984375 L 0.425781 341.984375 Z M 0.425781 0 " fill-opacity="1" fill-rule="nonzero"/><path fill="#ffffff" d="M 0.425781 0 L 380.574219 0 L 380.574219 334.5 L 0.425781 334.5 Z M 0.425781 0 " fill-opacity="1" fill-rule="nonzero"/></g><g clip-path="url(#d4d77439aa)"><g mask="url(#a77177169d)"><g transform="matrix(1, 0, 0, 1, 23, 8)"><g clip-path="url(#64c54c8ac0)"><g clip-path="url(#3e027d5371)"><path fill="#ffffff" d="M 1.054688 1.066406 L 333.757812 1.066406 L 333.757812 326.113281 L 1.054688 326.113281 Z M 1.054688 1.066406 " fill-opacity="1" fill-rule="nonzero"/></g></g></g></g></g><g clip-path="url(#b18644aa93)"><path fill="#492a28" d="M 1.125 157.367188 L 1.125 347.507812 L 391.886719 347.507812 L 391.886719 -32.777344 L 1.125 -32.777344 Z M 283.738281 20.433594 C 287.195312 21.316406 287.621094 21.347656 289.457031 21.042969 C 290.558594 20.859375 291.839844 20.800781 292.300781 20.890625 C 292.820312 20.980469 294.410156 22.296875 296.582031 24.402344 C 298.476562 26.234375 300.433594 28.097656 300.921875 28.585938 C 301.441406 29.046875 302.238281 29.933594 302.726562 30.574219 L 303.582031 31.734375 L 308.078125 31.613281 L 312.570312 31.519531 L 317.496094 33.933594 L 322.417969 36.347656 L 324.679688 36.132812 C 333.945312 35.246094 338.011719 35.339844 339.601562 36.5 C 340.761719 37.355469 341.648438 39.1875 342.535156 42.484375 C 343.421875 45.816406 343.484375 47.402344 342.996094 51.222656 C 342.414062 55.527344 342.351562 55.773438 341.40625 56.871094 L 340.488281 57.910156 L 340.945312 59.316406 C 341.558594 61.058594 341.589844 64.050781 341.007812 65.363281 C 340.792969 65.914062 340.214844 66.675781 339.753906 67.105469 C 338.988281 67.839844 338.683594 67.867188 334.464844 68.050781 C 329.632812 68.234375 322.234375 68.082031 320.980469 67.714844 C 320.550781 67.625 320.15625 67.289062 320.09375 67.042969 C 319.941406 66.1875 327.707031 64.660156 334.496094 64.171875 C 338.011719 63.929688 338.101562 63.867188 338.988281 60.355469 L 339.570312 58.1875 L 338.898438 58.371094 C 332.078125 60.355469 326.484375 60.445312 324.648438 58.613281 C 323.734375 57.699219 324.191406 57.363281 325.351562 58.125 C 326.363281 58.765625 329.542969 58.765625 332.445312 58.09375 C 336.789062 57.117188 339.601562 56.109375 340.03125 55.40625 C 340.273438 55.039062 340.609375 53.054688 340.792969 50.824219 C 341.128906 47.402344 341.101562 46.640625 340.609375 44.441406 L 340.089844 41.964844 L 339.722656 43.371094 C 338.988281 46.210938 336.941406 47.984375 334.25 48.015625 C 332.050781 48.015625 331.039062 47.3125 331.039062 45.722656 C 331.039062 44.808594 331.253906 44.257812 331.957031 43.523438 L 332.875 42.515625 L 332.691406 44.257812 L 332.476562 46.027344 L 333.667969 46.027344 C 335.933594 46.027344 338.132812 43.890625 338.011719 41.84375 C 337.917969 40.378906 338.46875 40.011719 339.265625 41.019531 C 340.089844 42.058594 340.089844 41.8125 339.265625 40.074219 C 338.898438 39.308594 338.378906 38.546875 338.074219 38.394531 C 336.941406 37.78125 333.882812 37.722656 327.953125 38.085938 L 321.804688 38.515625 L 319.941406 37.539062 C 318.902344 37.019531 316.699219 35.828125 315.050781 34.910156 L 312.050781 33.292969 L 307.863281 33.078125 C 303.15625 32.832031 302.726562 32.652344 301.441406 30.632812 C 300.984375 29.933594 298.78125 27.578125 296.550781 25.410156 L 292.484375 21.5 L 290.742188 21.746094 C 288.785156 22.019531 286.125 22.082031 281.660156 21.898438 C 278.878906 21.777344 278.449219 21.835938 276.890625 22.570312 C 274.167969 23.824219 270.53125 26.386719 270.378906 27.183594 C 270.285156 27.550781 270.164062 28.800781 270.070312 29.992188 C 269.828125 33.382812 266.859375 41.082031 265.242188 42.578125 C 264.691406 43.097656 263.496094 43.464844 260.53125 44.042969 C 258.359375 44.472656 256.21875 44.960938 255.761719 45.144531 C 254.753906 45.570312 253.898438 47.25 253.222656 50.152344 C 252.855469 51.710938 252.460938 52.566406 251.757812 53.328125 C 248.914062 56.351562 238.058594 59.042969 231.914062 58.246094 C 227.753906 57.726562 221.058594 55.40625 212.007812 51.34375 C 208.246094 49.632812 205.3125 48.960938 202.710938 49.207031 C 200.574219 49.390625 194.457031 51.617188 176.9375 58.582031 C 162.261719 64.417969 161.769531 64.570312 157.828125 64.996094 C 147.402344 66.128906 123.917969 63.746094 100.34375 59.164062 C 89.765625 57.117188 82.886719 57.179688 76.402344 59.316406 C 73.253906 60.386719 71.328125 61.484375 65.304688 65.640625 C 56.316406 71.871094 51.882812 75.320312 47.875 79.324219 C 43.65625 83.507812 42.585938 85.21875 41.578125 89.25 C 40.722656 92.703125 40.875 102.996094 41.914062 111.425781 C 43.6875 125.78125 44.789062 131.25 47.203125 137.359375 C 50.199219 144.964844 53.378906 150.523438 62.550781 164.390625 C 65.671875 169.09375 69.125 174.53125 70.195312 176.457031 C 71.265625 178.382812 72.824219 181.128906 73.652344 182.597656 C 75.457031 185.773438 77.566406 190.597656 78.328125 193.257812 C 78.757812 194.753906 78.910156 196.128906 78.878906 198.816406 C 78.820312 202.941406 78.390625 202.296875 82.855469 204.957031 C 84.324219 205.839844 86.339844 207.277344 87.347656 208.164062 C 88.359375 209.046875 89.183594 209.691406 89.183594 209.539062 C 89.183594 209.414062 88.878906 207.308594 88.542969 204.863281 L 87.871094 200.433594 L 86.308594 198.601562 C 83.957031 195.882812 82.210938 193.53125 79.398438 189.285156 C 77.230469 185.957031 73.957031 180.121094 74.324219 180.121094 C 74.386719 180.121094 74.996094 181.007812 75.699219 182.078125 C 76.527344 183.328125 79.398438 186.382812 83.863281 190.660156 C 87.65625 194.324219 90.988281 197.746094 91.261719 198.265625 C 91.875 199.367188 91.9375 204.3125 91.507812 212.410156 C 91.261719 216.867188 91.171875 217.355469 90.652344 217.480469 C 90.316406 217.570312 90.007812 217.480469 89.980469 217.296875 C 89.917969 217.082031 89.703125 216.257812 89.519531 215.402344 C 88.757812 212.253906 85.851562 209.539062 79.859375 206.328125 C 75.945312 204.253906 75.425781 203.398438 75.425781 199.214844 C 75.425781 195.058594 74.292969 189.253906 72.367188 183.328125 C 71.050781 179.359375 68.453125 174.839844 60.871094 163.476562 C 57.171875 157.914062 53.195312 151.714844 52.035156 149.667969 C 50.84375 147.621094 49.863281 146.003906 49.800781 146.035156 C 49.527344 146.339844 52.402344 153.363281 53.960938 156.175781 C 56.558594 160.941406 58.300781 164.453125 58.300781 165.03125 C 58.300781 166.195312 65.578125 182.199219 68.179688 186.75 C 68.851562 187.910156 68.941406 188.523438 69.125 193.105469 C 69.371094 199.121094 69.707031 201.167969 70.714844 203.0625 C 71.632812 204.742188 72.796875 205.476562 74.476562 205.476562 C 76.035156 205.476562 77.105469 206.359375 76.769531 207.398438 C 76.25 208.894531 77.046875 212.929688 78.390625 215.769531 C 79.339844 217.816406 79.523438 218 80.683594 218.335938 C 83.128906 218.976562 87.347656 224.230469 87.347656 226.613281 C 87.347656 227.007812 87.136719 227.652344 86.859375 228.015625 L 86.402344 228.6875 L 158.804688 228.660156 C 230.535156 228.660156 231.210938 228.628906 229.558594 228.046875 C 228.640625 227.742188 226.804688 227.253906 225.460938 227.007812 C 224.117188 226.765625 222.953125 226.488281 222.894531 226.429688 C 222.832031 226.367188 222.984375 223.742188 223.230469 220.5625 C 223.71875 214.851562 224.207031 212.074219 225.09375 210.363281 C 225.796875 209.019531 225.675781 208.683594 224.175781 207.367188 L 222.800781 206.148438 L 224.207031 202.695312 C 225.890625 198.601562 225.890625 199.914062 224.023438 184.703125 C 221.976562 168.242188 221.242188 161.460938 221.121094 158.070312 C 221.027344 156.265625 220.84375 154.25 220.691406 153.578125 C 220.476562 152.601562 216.226562 144.996094 215.921875 144.996094 C 215.859375 144.996094 216.042969 145.574219 216.289062 146.277344 C 216.960938 148.203125 216.65625 151.042969 215.464844 154.160156 C 214.914062 155.59375 214.054688 157.121094 213.597656 157.609375 L 212.742188 158.433594 L 213.902344 159.167969 C 215.617188 160.269531 217.511719 162.558594 218.246094 164.515625 C 219.316406 167.203125 219.347656 171.292969 218.398438 176.761719 C 217.96875 179.207031 217.328125 183.054688 216.960938 185.285156 L 216.320312 189.40625 L 216.960938 192.035156 C 218 196.25 218.09375 195.945312 213.691406 201.871094 C 208.0625 209.414062 205.679688 212.835938 205.1875 213.875 C 204.945312 214.363281 204.425781 216.378906 203.964844 218.304688 C 203.078125 222.273438 202.589844 223.007812 200.726562 223.3125 C 199.042969 223.589844 198.339844 224.015625 198.339844 224.75 C 198.339844 225.085938 197.941406 225.789062 197.453125 226.277344 L 196.566406 227.160156 L 190.878906 227.160156 C 185.253906 227.160156 183.785156 226.949219 183.480469 226.125 C 183.390625 225.847656 184 224.808594 184.980469 223.589844 C 187.699219 220.199219 189.71875 216.960938 190.695312 214.425781 C 191.734375 211.828125 195.222656 205.015625 196.75 202.605469 C 198.035156 200.617188 198.277344 199.242188 197.605469 198.023438 C 197.332031 197.472656 196.8125 196.890625 196.503906 196.679688 C 195.957031 196.339844 195.832031 196.464844 195.160156 197.777344 C 194.730469 198.601562 193.9375 199.703125 193.355469 200.191406 C 192.195312 201.230469 192.746094 201.046875 178.617188 204.253906 C 174.246094 205.261719 169.628906 206.359375 168.375 206.726562 C 166.695312 207.214844 165.164062 207.398438 162.71875 207.429688 L 159.324219 207.460938 L 152.292969 204.039062 L 151.40625 205.6875 C 149.480469 209.382812 146.300781 210.238281 136.882812 209.507812 C 133.03125 209.203125 132.90625 209.230469 132.90625 210.789062 C 132.90625 212.898438 132.082031 215.035156 130.15625 217.96875 C 128.503906 220.472656 128.261719 220.746094 127.710938 220.441406 C 126.945312 220.042969 126.945312 219.984375 127.832031 218.824219 C 129.757812 216.257812 130.890625 213.082031 130.921875 210.210938 L 130.921875 208.070312 L 132.082031 207.492188 C 133.214844 206.941406 133.425781 206.941406 138.441406 207.460938 C 146.667969 208.285156 148.625 207.675781 150.367188 203.792969 C 151.132812 202.085938 151.316406 198.386719 150.824219 194.816406 C 150.582031 193.042969 150.609375 192.890625 151.132812 193.011719 C 151.925781 193.164062 152.476562 195.210938 152.722656 199.058594 L 152.933594 202.238281 L 156.144531 202.632812 C 157.917969 202.847656 159.875 203.246094 160.519531 203.488281 C 162.109375 204.128906 165.289062 204.070312 169.046875 203.335938 C 170.792969 203 176.324219 202.113281 181.371094 201.351562 C 186.414062 200.585938 190.789062 199.886719 191.09375 199.792969 C 192.074219 199.488281 193.480469 198.050781 194.210938 196.585938 L 194.976562 195.121094 L 193.785156 194.171875 C 190.757812 191.730469 188.128906 187.453125 186.476562 182.261719 C 184.886719 177.21875 184.886719 175.234375 186.539062 175.234375 C 187.667969 175.234375 187.976562 175.90625 188.3125 179.238281 C 188.890625 185.285156 190.359375 188.125 196.046875 194.570312 C 198.339844 197.167969 198.617188 197.6875 198.644531 199.273438 C 198.644531 200.191406 198.277344 201.230469 197.269531 203.121094 C 196.230469 205.078125 191.917969 216.808594 191.917969 217.632812 C 191.917969 217.722656 190.144531 219.554688 187.945312 221.726562 C 185.773438 223.925781 183.96875 225.789062 183.96875 225.941406 C 183.96875 226.429688 185.4375 226.613281 190.238281 226.765625 C 197.421875 227.007812 198.035156 226.640625 198.035156 222.089844 C 198.035156 219.984375 198.21875 219.3125 200.511719 213.171875 C 203.722656 204.621094 205.035156 201.625 206.78125 198.847656 C 209.011719 195.273438 208.949219 194.660156 206.046875 191.117188 C 204.179688 188.828125 204.363281 187.878906 206.933594 186.964844 C 208.765625 186.292969 210.082031 184.917969 210.632812 183.117188 C 211.367188 180.609375 211 173.339844 209.621094 162.652344 C 209.257812 159.777344 209.257812 159.625 209.867188 158.832031 C 210.203125 158.34375 211.089844 157.761719 211.824219 157.519531 C 213.351562 156.96875 213.660156 156.328125 214.238281 152.722656 C 214.882812 148.78125 213.628906 146.066406 210.480469 144.597656 C 206.351562 142.644531 203.628906 143.347656 201.824219 146.859375 C 201.183594 148.140625 200.207031 151.53125 200.175781 152.507812 C 200.175781 152.816406 203.597656 154.160156 204.394531 154.160156 C 204.667969 154.160156 204.761719 153.363281 204.761719 151.289062 C 204.761719 147.714844 205.007812 146.980469 206.414062 146.523438 C 208.613281 145.820312 211.058594 146.765625 212.28125 148.8125 C 213.71875 151.316406 213.199219 154.402344 211.089844 155.6875 C 209.5625 156.632812 207.542969 156.449219 202.132812 154.921875 C 196.167969 153.210938 194.335938 153.089844 191.890625 154.3125 C 189.257812 155.65625 180.363281 160.847656 178.007812 162.40625 C 176.84375 163.199219 174.550781 164.851562 172.960938 166.042969 C 171.371094 167.230469 169.570312 168.363281 168.957031 168.515625 C 167.949219 168.789062 165.929688 168.667969 162.109375 168.058594 C 160.914062 167.84375 160.855469 167.875 160.488281 168.941406 C 160.027344 170.164062 157.644531 172.457031 155.992188 173.25 C 154.402344 173.984375 153.578125 173.675781 153.148438 172.242188 C 152.660156 170.652344 152.597656 170.777344 154.097656 169.828125 C 156.054688 168.578125 157.0625 167.566406 157.0625 166.804688 C 157.0625 165.886719 151.742188 159.71875 150.734375 159.472656 C 149.449219 159.136719 145.414062 159.566406 143.242188 160.238281 C 140.734375 161.03125 139.023438 162.496094 139.023438 163.839844 C 139.023438 164.972656 138.535156 165.460938 137.371094 165.460938 C 136.242188 165.429688 133.367188 164.300781 131.992188 163.324219 C 130.738281 162.40625 129.542969 159.933594 129.542969 158.097656 C 129.542969 155.625 129.421875 155.59375 124.347656 155.992188 C 120.464844 156.328125 119.605469 156.480469 117.496094 157.398438 C 116.152344 157.976562 114.960938 158.433594 114.867188 158.433594 C 114.746094 158.433594 112.820312 157.335938 110.585938 155.960938 C 106.550781 153.515625 106.488281 153.488281 105.359375 153.851562 C 104.746094 154.066406 103.585938 154.617188 102.761719 155.074219 L 101.324219 155.929688 L 102.730469 156.9375 C 104.441406 158.128906 104.503906 158.558594 103.402344 161.796875 C 102.972656 163.015625 102.636719 164.179688 102.636719 164.332031 C 102.636719 164.515625 103.25 164.542969 104.105469 164.453125 C 105.664062 164.269531 106.519531 164.542969 106.183594 165.125 C 105.941406 165.492188 104.898438 165.550781 103.1875 165.277344 C 102.238281 165.125 102.054688 164.941406 101.964844 164.269531 C 101.875 163.535156 101.75 163.476562 100.253906 163.382812 C 98.417969 163.292969 98.449219 163.230469 99.425781 165.644531 C 99.792969 166.558594 99.917969 166.621094 101.964844 166.804688 C 104.5625 167.050781 105.695312 167.78125 105.695312 169.15625 C 105.695312 170.441406 107.101562 173.003906 110.097656 177.21875 C 111.535156 179.238281 113.921875 182.65625 115.386719 184.855469 C 118.445312 189.378906 121.167969 192.25 125.082031 195.089844 C 127.863281 197.105469 129.300781 198.632812 129.699219 199.914062 C 130.15625 201.472656 125.082031 204.804688 122.816406 204.4375 C 121.746094 204.285156 121.625 204.3125 121.195312 205.261719 C 120.953125 205.78125 120.433594 207.214844 120.097656 208.40625 C 119.730469 209.628906 119.242188 210.757812 118.996094 210.972656 C 118.597656 211.277344 118.964844 211.828125 121.378906 214.609375 C 126.394531 220.289062 126.914062 221.359375 126.027344 223.679688 C 125.324219 225.511719 124.53125 226 122.296875 225.941406 C 121.320312 225.910156 119.300781 226.09375 117.773438 226.367188 C 115.9375 226.703125 112.148438 226.917969 106.582031 227.070312 L 98.144531 227.253906 L 97.960938 225.605469 C 97.835938 224.6875 97.683594 222.089844 97.5625 219.800781 L 97.347656 215.644531 L 98.632812 214.945312 C 99.640625 214.363281 99.855469 214.089844 99.703125 213.601562 C 99.273438 212.253906 98.355469 210.730469 97.53125 210.027344 C 95.144531 207.980469 94.839844 207.367188 94.078125 203.03125 L 93.34375 198.96875 L 90.285156 195.121094 C 84.902344 188.371094 78.972656 180.398438 76.25 176.304688 C 73.683594 172.394531 72.917969 171.417969 68.453125 166.40625 C 67.230469 165.03125 66.097656 163.566406 65.945312 163.140625 C 65.550781 162.132812 66.039062 161.03125 68.332031 157.609375 C 70.53125 154.34375 70.960938 153.089844 70.746094 150.769531 C 70.5625 148.539062 69.738281 147.074219 66.160156 142.367188 C 57.203125 130.609375 55.550781 128.347656 53.5625 125.292969 C 49.3125 118.816406 46.835938 113.382812 45.886719 108.554688 C 45.429688 106.171875 45.398438 105.347656 45.703125 101.5 C 45.917969 99.085938 46.285156 96.03125 46.53125 94.65625 C 48.855469 82.410156 54.234375 72.601562 58.609375 72.601562 C 59.21875 72.601562 59.1875 72.695312 58.300781 73.886719 C 54.265625 79.507812 53.289062 81.582031 51.730469 87.691406 C 49.742188 95.664062 48.945312 104.523438 49.863281 108.464844 C 51.363281 114.785156 56.375 123.460938 68.269531 140.414062 C 69.859375 142.675781 71.601562 145.421875 72.152344 146.523438 C 73.039062 148.324219 73.132812 148.722656 73.132812 151.410156 C 73.101562 154.921875 72.429688 157.792969 70.898438 160.632812 L 69.828125 162.679688 L 70.839844 164.605469 C 73.4375 169.585938 74.386719 170.898438 79.707031 177.464844 C 82.089844 180.367188 87.746094 187.941406 92.304688 194.324219 L 94.933594 197.992188 L 95.144531 202.207031 L 95.359375 206.453125 L 96.492188 206.910156 C 98.355469 207.675781 100.375 209.109375 100.742188 209.902344 C 101.414062 211.371094 101.199219 213.476562 100.191406 215.035156 L 99.273438 216.5 L 99.917969 220.441406 L 100.589844 224.351562 L 101.535156 224.535156 C 103.675781 224.902344 115.203125 225.359375 117.710938 225.175781 C 120.921875 224.902344 121.929688 224.351562 121.289062 223.160156 C 121.074219 222.761719 119.484375 220.960938 117.804688 219.191406 C 114.195312 215.402344 111.6875 211.582031 112.789062 211.582031 C 113.1875 211.582031 117.128906 215.464844 120.464844 219.160156 C 122.421875 221.328125 123.125 223.039062 122.574219 224.261719 C 122.265625 224.933594 122.296875 225.023438 122.847656 225.023438 C 124.621094 225.023438 125.601562 223.191406 124.773438 221.449219 C 124.253906 220.410156 120.1875 216.441406 112.820312 209.902344 C 109.332031 206.789062 108.753906 206.148438 108.601562 205.199219 C 108.078125 201.777344 106.949219 198.785156 104.777344 195.089844 C 101.109375 188.765625 93.34375 174.625 90.988281 169.890625 C 87.746094 163.351562 87.289062 161.398438 88.082031 157.578125 C 88.816406 154.097656 90.191406 151.652344 93.160156 148.507812 C 101.046875 140.261719 105.632812 134.089844 108.875 127.492188 C 113.554688 117.902344 113.398438 108.15625 108.292969 93.832031 C 106.582031 88.976562 105.96875 87.90625 104.195312 86.5625 C 101.507812 84.546875 98.96875 83.570312 93.953125 82.683594 C 88.207031 81.644531 87.320312 81.828125 84.046875 84.945312 C 81.664062 87.171875 80.835938 87.480469 80.011719 86.5 C 79.125 85.433594 80.746094 82.195312 82.917969 80.574219 C 85.269531 78.863281 87.777344 78.621094 92.976562 79.628906 C 101.414062 81.246094 106.734375 84.210938 108.84375 88.363281 C 109.882812 90.472656 113.1875 100.675781 113.765625 103.605469 C 115.296875 111.425781 115.144531 118.207031 113.308594 123.917969 C 111.351562 130.089844 105.847656 138.765625 99.03125 146.460938 C 97.777344 147.867188 96.828125 149.089844 96.917969 149.179688 C 97.011719 149.242188 97.53125 149.546875 98.082031 149.820312 C 98.632812 150.128906 99.335938 150.707031 99.671875 151.136719 C 100.191406 151.867188 100.222656 152.050781 99.855469 152.816406 C 99.183594 154.191406 97.132812 155.136719 94.414062 155.320312 L 92.089844 155.472656 L 94.625 155.871094 C 97.46875 156.265625 98.171875 156.726562 98.691406 158.40625 C 99 159.472656 99.089844 159.503906 100.222656 159.414062 C 100.863281 159.351562 101.414062 159.199219 101.414062 159.078125 C 101.382812 158.984375 100.863281 158.527344 100.191406 158.070312 C 97.683594 156.328125 98.328125 154.707031 102.210938 152.875 C 106.367188 150.953125 106.308594 150.921875 110.3125 153.792969 L 113.765625 156.234375 L 116.214844 155.351562 C 117.925781 154.707031 120.097656 154.25 123.277344 153.851562 C 127.558594 153.335938 130.308594 152.664062 129.238281 152.449219 C 128.992188 152.386719 125.96875 152.050781 122.511719 151.714844 C 119.058594 151.378906 115.203125 150.828125 113.949219 150.464844 C 109.640625 149.273438 105.847656 146.796875 103.828125 143.867188 C 102.515625 141.972656 103.003906 141.664062 105.238281 143.011719 C 109.546875 145.574219 114.441406 146.949219 122.359375 147.746094 C 129.574219 148.507812 135.230469 149.273438 144.832031 150.828125 C 150.550781 151.777344 152.84375 152.019531 154.464844 151.898438 C 155.65625 151.808594 163.542969 151.5 172.046875 151.226562 L 187.484375 150.738281 L 192.988281 149.058594 C 196.015625 148.140625 198.921875 147.253906 199.441406 147.101562 C 200.207031 146.859375 200.449219 146.554688 200.878906 145.210938 C 201.640625 142.796875 203.203125 141.148438 205.28125 140.535156 C 206.351562 140.230469 207.421875 140.109375 208.246094 140.230469 C 210.203125 140.535156 213.140625 142.03125 214.578125 143.527344 C 215.554688 144.507812 215.738281 144.597656 215.28125 143.925781 C 214.332031 142.550781 210.785156 136.257812 209.53125 133.785156 C 208.460938 131.648438 208.03125 129.113281 208.707031 129.113281 C 208.859375 129.113281 209.4375 129.476562 209.960938 129.9375 C 210.664062 130.515625 211.855469 132.625 214.085938 137.175781 C 220.964844 151.316406 221.578125 152.722656 221.578125 154.160156 C 221.578125 154.921875 221.792969 156.417969 222.035156 157.488281 C 222.921875 161.246094 226.53125 192.980469 226.59375 197.6875 C 226.625 200.039062 226.5625 200.25 225.09375 203.121094 C 223.65625 205.992188 223.625 206.148438 224.175781 206.484375 C 224.511719 206.636719 225.371094 207.367188 226.101562 208.101562 C 227.417969 209.382812 227.417969 209.414062 227.203125 211.035156 C 227.082031 211.917969 226.195312 215.617188 225.246094 219.21875 C 223.71875 224.992188 223.566406 225.816406 223.992188 226 C 224.757812 226.304688 228.550781 226.277344 230.597656 225.941406 C 231.605469 225.757812 234.511719 225.480469 237.082031 225.328125 C 239.953125 225.144531 242.15625 224.871094 242.859375 224.566406 C 243.960938 224.105469 243.960938 224.078125 243.777344 222.855469 C 243.5 221.175781 241.726562 216.65625 240.015625 213.265625 L 238.640625 210.515625 L 238.210938 199.488281 C 237.996094 193.410156 237.601562 185.101562 237.355469 181.007812 C 236.957031 174.53125 236.957031 172.640625 237.324219 166.53125 C 237.875 157.761719 237.90625 155.015625 237.417969 154.527344 C 237.140625 154.25 237.171875 154.066406 237.628906 153.730469 C 238.148438 153.363281 238.179688 152.601562 238.273438 140.078125 C 238.332031 126.941406 238.332031 126.789062 239.066406 124.804688 C 239.464844 123.707031 240.320312 121.871094 240.964844 120.742188 C 242.246094 118.421875 245.917969 113.902344 247.75 112.375 C 248.945312 111.363281 248.972656 111.304688 248.972656 109.320312 C 248.972656 107.640625 249.1875 106.722656 250.136719 104.371094 C 252.214844 99.238281 256.648438 90.5625 258.941406 87.113281 C 261.328125 83.570312 262.398438 82.683594 264.261719 82.683594 C 265.332031 82.683594 265.609375 83.171875 265.609375 85.25 C 265.609375 86.652344 264.75 88.121094 258.726562 97.039062 C 255.089844 102.414062 252.460938 106.691406 252.460938 107.210938 C 252.460938 107.882812 253.742188 106.753906 260.011719 100.613281 C 267.65625 93.128906 269.703125 91.390625 271.140625 91.082031 C 272.210938 90.839844 272.761719 91.328125 272.335938 92.152344 C 271.996094 92.761719 259.765625 104.859375 256.128906 108.1875 C 253.5625 110.539062 251.757812 111.703125 250.71875 111.703125 C 250.136719 111.730469 246.101562 117.964844 244.265625 121.660156 C 242.0625 126.058594 241.972656 126.578125 241.910156 135.832031 C 241.851562 140.445312 241.667969 146.066406 241.484375 148.324219 C 241.300781 150.554688 241.207031 152.480469 241.269531 152.570312 C 241.789062 153.089844 246.558594 148.570312 248.148438 146.066406 C 250.226562 142.796875 252.277344 141.726562 257.902344 141.054688 C 259.460938 140.871094 261.019531 140.535156 261.359375 140.320312 C 262.121094 139.863281 262.734375 138.734375 265.027344 133.417969 C 267.136719 128.625 267.472656 128.042969 268.757812 127.277344 C 269.949219 126.546875 270.835938 126.515625 272.242188 127.1875 C 273.222656 127.644531 273.433594 127.644531 274.136719 127.25 C 275.117188 126.699219 276.460938 124.285156 276.921875 122.238281 C 277.867188 117.992188 279.304688 117.015625 285.453125 116.28125 C 286.886719 116.101562 288.449219 115.886719 288.90625 115.792969 C 289.730469 115.640625 289.730469 115.609375 289.304688 114.753906 C 288.324219 112.890625 289.152344 109.195312 291.503906 104.585938 L 292.636719 102.386719 L 292.851562 105.074219 C 293.035156 107.394531 293.003906 107.914062 292.515625 108.738281 C 292.207031 109.289062 291.71875 110.511719 291.445312 111.457031 C 290.984375 113.046875 290.984375 113.289062 291.414062 114.113281 C 291.6875 114.601562 291.902344 115.367188 291.902344 115.792969 C 291.902344 117.136719 290.800781 117.535156 286.460938 117.839844 C 282.394531 118.144531 280.070312 118.695312 279.246094 119.582031 C 279 119.886719 278.449219 121.230469 278.050781 122.574219 C 277.65625 123.890625 276.980469 125.570312 276.523438 126.269531 C 275.636719 127.644531 273.800781 128.804688 272.488281 128.804688 C 270.5625 128.804688 269.734375 129.507812 267.042969 133.632812 C 265.609375 135.800781 264.078125 138.183594 263.652344 138.917969 C 263.191406 139.648438 262.671875 140.476562 262.488281 140.75 C 262.214844 141.148438 262.703125 142.703125 264.78125 148.234375 C 266.21875 152.082031 268.757812 159.351562 270.4375 164.390625 C 273.832031 174.625 273.496094 172.730469 274.015625 185.316406 C 274.472656 196.035156 275.054688 201.777344 275.851562 203.335938 C 276.09375 203.824219 277.683594 205.476562 279.367188 207.03125 C 282.914062 210.300781 283.15625 210.820312 282.882812 214.730469 C 282.699219 217.691406 282.332031 218.699219 281.230469 219.402344 C 280.316406 220.042969 271.324219 221.328125 267.839844 221.359375 L 265.636719 221.359375 L 264.109375 219.800781 C 262.183594 217.84375 260.59375 214.730469 260.105469 211.949219 C 259.613281 209.355469 259.890625 207.796875 260.929688 206.820312 L 261.753906 206.054688 L 260.777344 203.671875 C 260.105469 202.023438 259.796875 200.800781 259.796875 199.640625 C 259.796875 196.339844 258.542969 182.964844 258.023438 180.519531 C 257.535156 178.199219 257.320312 177.738281 255.089844 174.746094 C 251.605469 170.042969 246.160156 162.132812 243.898438 158.496094 C 242.582031 156.390625 241.789062 155.378906 241.484375 155.441406 C 240.902344 155.5625 240.839844 155.992188 239.648438 167.140625 L 238.761719 175.386719 L 239.007812 192.859375 L 239.28125 210.332031 L 241.636719 214.089844 C 245 219.402344 246.652344 222.761719 246.652344 224.167969 C 246.652344 225.789062 245.214844 227.316406 242.980469 228.078125 C 241.332031 228.660156 241.972656 228.660156 299.636719 228.6875 L 357.945312 228.6875 L 357.945312 230.523438 L 28.644531 230.523438 L 28.644531 228.6875 L 48 228.660156 C 64.96875 228.628906 67.078125 228.566406 65.273438 228.230469 C 62.613281 227.679688 60.59375 226.796875 60.105469 225.878906 C 59.617188 225.023438 59.585938 218.394531 60.046875 216.777344 C 60.441406 215.308594 60.046875 213.996094 58.914062 213.265625 C 56.867188 211.890625 55.398438 208.652344 48.519531 190.355469 C 46.070312 183.847656 43.808594 178.136719 41.636719 172.945312 C 40.507812 170.257812 39.5 167.476562 39.4375 166.742188 C 39.34375 166.042969 39.5 164.238281 39.742188 162.773438 C 39.988281 161.304688 40.386719 159.015625 40.597656 157.671875 C 40.933594 155.351562 41.027344 155.167969 42.402344 153.851562 C 44.085938 152.265625 44.542969 151.472656 44.542969 150.28125 C 44.542969 149.300781 41.332031 139.832031 39.34375 134.914062 C 37.480469 130.332031 36.074219 126.089844 35.828125 124.285156 C 35.429688 121.351562 36.898438 114.390625 38.917969 109.839844 L 39.988281 107.425781 L 39.621094 104.277344 C 39.160156 100.125 39.160156 92.152344 39.621094 89.863281 C 40.75 84.332031 42.003906 82.132812 46.835938 77.308594 C 51.207031 72.9375 55.429688 69.550781 65.792969 62.097656 C 72.304688 57.421875 77.105469 55.589844 84.535156 54.886719 C 89.550781 54.429688 93.585938 54.824219 106.917969 57.027344 C 126.027344 60.171875 137.523438 61.363281 149.417969 61.425781 C 158.5 61.453125 159.9375 61.269531 165.011719 59.253906 C 170.636719 57.054688 176.507812 55.039062 185.039062 52.382812 C 201.246094 47.34375 199.472656 47.769531 204.457031 47.738281 L 208.890625 47.710938 L 218.214844 50.824219 C 231.636719 55.316406 231.578125 55.316406 236.867188 55.285156 C 241.605469 55.285156 245.425781 54.734375 248.363281 53.636719 C 250.777344 52.71875 251.726562 51.800781 252.308594 49.785156 C 253.070312 47.128906 253.988281 45.417969 254.875 44.992188 C 255.304688 44.777344 257.382812 44.226562 259.492188 43.738281 C 261.601562 43.28125 263.558594 42.792969 263.835938 42.636719 C 265.210938 41.90625 266.15625 37.722656 266.402344 31.519531 C 266.617188 26.023438 266.707031 25.472656 267.625 24.371094 C 269.398438 22.234375 275.574219 19.453125 278.542969 19.453125 C 279.335938 19.453125 281.691406 19.882812 283.738281 20.433594 Z M 285.480469 23.335938 C 285.054688 23.609375 283.890625 24.679688 282.851562 25.714844 C 281.230469 27.335938 280.863281 27.914062 280.160156 29.992188 C 279.304688 32.589844 278.632812 38.027344 278.96875 39.675781 C 279.089844 40.316406 279.0625 40.5625 278.816406 40.4375 C 278.296875 40.101562 277.714844 36.039062 277.714844 32.589844 C 277.714844 28.742188 278.113281 27.734375 280.34375 25.714844 C 281.933594 24.28125 284.625 22.84375 285.636719 22.84375 C 286.183594 22.84375 286.183594 22.90625 285.480469 23.335938 Z M 277.011719 24.953125 C 275.882812 25.65625 274.8125 26.632812 274.320312 27.367188 C 273.375 28.894531 272.792969 32.527344 273.097656 35.246094 C 273.28125 36.925781 273.222656 37.171875 272.699219 37.445312 C 271.722656 37.964844 271.324219 37.109375 271.171875 34.148438 C 271.019531 30.878906 271.507812 28.40625 272.578125 27 C 273.710938 25.503906 276.613281 23.945312 278.601562 23.761719 C 278.785156 23.761719 278.050781 24.28125 277.011719 24.953125 Z M 292.515625 23.945312 C 292.515625 24.097656 291.933594 24.523438 291.199219 24.921875 C 286.339844 27.703125 285.238281 30.328125 285.574219 38.453125 C 285.757812 42.730469 285.574219 43.523438 284.6875 42.609375 C 284.074219 42.027344 283.800781 36.40625 284.226562 33.414062 C 284.65625 30.328125 285.511719 28.40625 287.101562 26.847656 C 288.9375 25.074219 292.515625 23.152344 292.515625 23.945312 Z M 306.578125 38.179688 C 306.578125 39.308594 304.714844 42.089844 303.523438 42.730469 C 301.75 43.648438 298.476562 43.3125 298.078125 42.121094 C 297.988281 41.875 298.445312 41.753906 299.636719 41.753906 C 301.230469 41.753906 301.441406 41.660156 303.183594 40.195312 C 304.226562 39.339844 305.203125 38.363281 305.386719 38.058594 C 305.816406 37.230469 306.578125 37.324219 306.578125 38.179688 Z M 277.683594 41.753906 C 280.46875 42.976562 281.566406 45.175781 281.597656 49.542969 C 281.628906 52.199219 281.109375 53.605469 279.886719 54.398438 C 278.816406 55.101562 270.222656 58.460938 268.207031 59.011719 C 265.699219 59.652344 260.867188 59.683594 259.308594 59.011719 C 256.648438 57.910156 255.824219 56.476562 255.824219 52.992188 C 255.824219 48.960938 256.710938 46.121094 257.78125 46.519531 C 257.964844 46.578125 260.042969 46.394531 262.367188 46.058594 C 267.105469 45.449219 266.523438 45.753906 269.214844 42.425781 C 269.917969 41.539062 270.5 41.140625 271.203125 41.050781 C 272.945312 40.804688 276.429688 41.171875 277.683594 41.753906 Z M 336.789062 52.078125 C 333.667969 55.375 332.628906 56.109375 330.917969 56.109375 C 329.695312 56.109375 328.226562 55.039062 327.492188 53.574219 C 326.757812 52.230469 327.460938 51.984375 328.992188 53.085938 C 329.664062 53.574219 330.519531 53.972656 330.917969 53.972656 C 331.652344 53.972656 334.679688 52.351562 336.636719 50.917969 C 338.53125 49.542969 338.59375 50.183594 336.789062 52.078125 Z M 217.511719 58.886719 C 218.246094 59.226562 218.828125 59.621094 218.828125 59.742188 C 218.828125 60.476562 218.09375 61.914062 217.664062 62.035156 C 217.359375 62.125 214.882812 62.15625 212.097656 62.15625 C 201.03125 62.125 190.972656 65.058594 185.683594 69.886719 L 183.601562 71.777344 L 180.515625 72.023438 C 176.265625 72.359375 162.445312 73.121094 153.546875 73.550781 C 145.261719 73.917969 144.527344 73.824219 144.527344 72.328125 C 144.527344 71.6875 144.710938 71.382812 145.230469 71.230469 C 145.597656 71.078125 154.339844 70.921875 164.644531 70.894531 L 183.390625 70.800781 L 184.246094 69.640625 C 185.46875 67.992188 188.464844 65.304688 190.480469 64.113281 C 193.386719 62.371094 197.027344 60.964844 201.367188 59.898438 C 206.320312 58.675781 208.734375 58.339844 212.984375 58.277344 C 215.644531 58.246094 216.410156 58.339844 217.511719 58.886719 Z M 327.21875 71.046875 C 326.914062 72.421875 325.382812 74.34375 324.039062 75.015625 C 323.394531 75.351562 321.714844 75.78125 320.277344 75.964844 C 315.597656 76.542969 312.144531 77.765625 310.644531 79.382812 C 309.941406 80.148438 307.527344 84.363281 303.734375 91.542969 C 302.421875 93.984375 300.863281 96.582031 300.21875 97.316406 L 299.089844 98.628906 L 297.316406 98.414062 C 296.367188 98.292969 295.570312 98.078125 295.570312 97.925781 C 295.570312 97.804688 296.183594 96.796875 296.949219 95.695312 C 297.710938 94.625 299.242188 91.878906 300.34375 89.648438 C 303.523438 83.171875 306.640625 77.765625 307.894531 76.484375 C 310.21875 74.160156 313.519531 73.214844 319.300781 73.214844 C 323.703125 73.214844 324.589844 72.9375 326.148438 71.167969 C 326.730469 70.496094 327.277344 70.007812 327.308594 70.039062 C 327.371094 70.066406 327.339844 70.527344 327.21875 71.046875 Z M 201.855469 91.296875 C 204.699219 94.167969 205.832031 96.09375 206.472656 99.300781 C 207.207031 102.8125 206.441406 106.417969 203.507812 113.320312 C 199.136719 123.550781 192.714844 133.386719 187.609375 137.726562 C 185.589844 139.4375 184.640625 139.925781 182.136719 140.566406 C 181.035156 140.839844 177.273438 142.183594 173.726562 143.527344 C 161.160156 148.355469 154.890625 150.308594 150.273438 150.953125 C 149.082031 151.105469 148.808594 151.042969 148.808594 150.675781 C 148.808594 150.402344 149.175781 150.128906 149.664062 150.003906 C 154.707031 148.875 158.714844 147.4375 165.746094 144.324219 C 173.390625 140.933594 178.558594 138.792969 180.941406 138 C 183.785156 137.054688 185.4375 135.921875 187.640625 133.359375 C 193.140625 126.972656 200.359375 113.199219 202.375 105.226562 C 203.570312 100.523438 202.5 97.132812 198.769531 93.710938 C 196.628906 91.753906 196.015625 90.746094 196.324219 89.585938 C 196.503906 88.882812 196.660156 88.792969 197.914062 88.792969 C 199.289062 88.792969 199.441406 88.882812 201.855469 91.296875 Z M 278.234375 99.390625 C 278.664062 100.886719 279.582031 104.25 280.285156 106.90625 C 281.476562 111.578125 282.089844 113.289062 282.730469 113.6875 C 282.882812 113.777344 283.035156 114.207031 283.035156 114.632812 C 283.035156 115.246094 282.882812 115.367188 282.179688 115.367188 C 280.101562 115.367188 277.683594 112.375 276.460938 108.339844 C 275.882812 106.355469 275.515625 100.917969 275.820312 98.476562 C 276.035156 96.917969 276.125 96.734375 276.738281 96.734375 C 277.347656 96.734375 277.53125 97.070312 278.234375 99.390625 Z M 268.144531 105.347656 C 269.246094 108.3125 269.980469 112.25 270.5 117.964844 C 270.652344 119.980469 270.957031 122.484375 271.140625 123.550781 C 271.324219 124.621094 271.417969 125.539062 271.355469 125.628906 C 271.019531 125.933594 269.703125 125.050781 269.03125 124.070312 C 267.382812 121.691406 265.914062 115.398438 265.914062 110.785156 C 265.914062 108.617188 266.371094 104.859375 266.707031 104.308594 C 267.074219 103.699219 267.6875 104.15625 268.144531 105.347656 Z M 47.875 118.085938 C 48.058594 119.277344 48.886719 122.421875 49.742188 125.140625 C 50.566406 127.859375 51.453125 131.066406 51.699219 132.289062 C 52.277344 135.097656 53.074219 137.144531 56.160156 143.925781 C 57.539062 146.949219 59.28125 150.738281 59.984375 152.355469 C 60.71875 153.976562 62.980469 158.710938 65 162.863281 C 67.046875 167.050781 68.636719 170.378906 68.515625 170.285156 C 68.300781 170.074219 63.59375 162.4375 58.851562 154.617188 C 54.785156 147.898438 50.015625 138.519531 49.34375 135.832031 C 48.671875 133.175781 46.988281 120.285156 46.988281 117.871094 C 46.988281 116.832031 47.113281 115.976562 47.265625 115.976562 C 47.386719 115.976562 47.660156 116.925781 47.875 118.085938 Z M 251.664062 118.085938 C 251.757812 118.207031 251.574219 119.246094 251.238281 120.34375 C 249.617188 126.089844 249.738281 129.203125 251.726562 131.523438 C 253.011719 132.992188 253.988281 133.570312 256.066406 134.03125 C 259.1875 134.671875 257.566406 136.441406 253.898438 136.441406 C 249.738281 136.414062 246.34375 132.5625 246.34375 127.796875 C 246.34375 123.796875 250.503906 116.191406 251.664062 118.085938 Z M 114.714844 161.796875 C 114.808594 162.132812 115.265625 162.679688 115.695312 163.015625 C 116.703125 163.8125 115.9375 163.8125 114.652344 163.015625 C 114.042969 162.652344 113.644531 162.160156 113.644531 161.796875 C 113.644531 161 114.46875 161 114.714844 161.796875 Z M 127.710938 163.78125 C 128.933594 164.390625 129.574219 165.308594 129.757812 166.652344 C 130.0625 168.914062 128.046875 171.386719 122.511719 175.539062 C 118.660156 178.410156 115.449219 180.03125 114.316406 179.632812 C 113.644531 179.390625 113.460938 179.113281 113.398438 178.230469 C 113.277344 176.855469 114.042969 174.929688 114.746094 174.929688 C 115.113281 174.929688 115.203125 175.113281 115.050781 175.601562 C 114.929688 176 114.777344 176.761719 114.652344 177.28125 C 114.5 178.199219 114.5625 178.289062 115.234375 178.289062 C 116.671875 178.289062 122.542969 174.289062 125.082031 171.570312 C 126.792969 169.738281 127.558594 168.148438 127.097656 167.324219 C 126.945312 167.019531 126.332031 166.46875 125.785156 166.132812 C 124.46875 165.367188 124.195312 164.390625 124.988281 163.597656 C 125.628906 162.957031 126.152344 162.988281 127.710938 163.78125 Z M 137.953125 168.027344 C 140.550781 169.125 140.152344 172.640625 137.097656 175.449219 C 135.078125 177.3125 132.511719 177.863281 130.21875 176.882812 C 128.964844 176.367188 127.402344 175.019531 127.402344 174.441406 C 127.402344 173.617188 127.953125 173.769531 129.175781 174.929688 C 131.898438 177.433594 135.75 176.703125 138.042969 173.21875 C 139.175781 171.539062 139.359375 169.828125 138.472656 169.035156 C 137.617188 168.242188 135.539062 167.933594 133.304688 168.242188 C 131.164062 168.546875 130.21875 168.394531 132.175781 168.058594 C 132.847656 167.933594 133.519531 167.8125 133.671875 167.75 C 134.46875 167.476562 137.003906 167.660156 137.953125 168.027344 Z M 135.292969 169.828125 C 135.691406 170.132812 135.78125 171.203125 135.476562 172.027344 C 134.957031 173.3125 132.175781 173.828125 131.226562 172.792969 C 130.460938 171.964844 130.828125 171.722656 131.960938 172.304688 C 133.089844 172.914062 134.34375 172.457031 134.621094 171.386719 C 134.863281 170.46875 134.558594 170.042969 133.703125 170.042969 C 133.304688 170.042969 132.511719 169.949219 131.960938 169.828125 L 130.921875 169.585938 L 132.144531 169.402344 C 133.519531 169.21875 134.710938 169.371094 135.292969 169.828125 Z M 140.429688 199.214844 C 141.957031 199.855469 141.621094 200.464844 139.847656 200.34375 C 137.769531 200.191406 135.507812 201.320312 133.425781 203.550781 C 132.511719 204.527344 130.429688 206.726562 128.8125 208.46875 C 127.191406 210.179688 125.324219 212.4375 124.652344 213.445312 C 122.910156 216.136719 122.878906 215.128906 124.589844 211.796875 C 127.742188 205.75 130.554688 202.265625 133.765625 200.375 C 136.515625 198.753906 138.503906 198.386719 140.429688 199.214844 Z M 288.234375 208.804688 C 286.460938 209.355469 285.238281 210.667969 284.535156 212.746094 C 284.289062 213.507812 284.257812 213.507812 284.410156 212.5625 C 284.6875 210.667969 286.859375 208.5 288.386719 208.558594 C 288.875 208.589844 288.84375 208.621094 288.234375 208.804688 Z M 292.453125 208.957031 C 293.433594 209.445312 294.839844 210.910156 294.59375 211.125 C 294.5 211.21875 294.195312 210.941406 293.921875 210.484375 C 293.613281 210.054688 292.820312 209.445312 292.117188 209.109375 C 291.414062 208.804688 291.015625 208.53125 291.230469 208.53125 C 291.445312 208.53125 291.996094 208.710938 292.453125 208.957031 Z M 289.152344 211.890625 C 289.152344 212.042969 288.816406 212.195312 288.386719 212.195312 C 287.652344 212.195312 287.621094 212.285156 287.5625 214.242188 L 287.53125 216.316406 L 287.347656 214.332031 C 287.195312 212.5625 287.070312 212.347656 286.492188 212.253906 C 285.113281 212.042969 285.816406 211.582031 287.46875 211.582031 C 288.386719 211.582031 289.152344 211.707031 289.152344 211.890625 Z M 290.710938 212.714844 C 291.476562 215.15625 291.597656 215.21875 292.363281 213.386719 C 293.402344 211.003906 293.738281 211.125 293.738281 213.875 C 293.738281 215.339844 293.613281 216.136719 293.433594 216.011719 C 293.277344 215.921875 293.125 215.25 293.09375 214.546875 L 293.066406 213.265625 L 292.453125 214.699219 C 292.117188 215.523438 291.71875 216.164062 291.628906 216.164062 C 291.503906 216.164062 291.109375 215.523438 290.773438 214.699219 L 290.128906 213.265625 L 290.097656 214.730469 C 290.039062 217.050781 289.457031 216.105469 289.457031 213.691406 C 289.457031 211.246094 290.066406 210.789062 290.710938 212.714844 Z M 295.265625 213.234375 C 295.265625 214.425781 295.082031 214.148438 294.867188 212.652344 C 294.746094 211.828125 294.777344 211.582031 294.960938 211.890625 C 295.113281 212.132812 295.265625 212.746094 295.265625 213.234375 Z M 295.175781 215.308594 C 295.082031 215.523438 295.023438 215.371094 295.023438 214.945312 C 295.023438 214.515625 295.082031 214.363281 295.175781 214.546875 C 295.234375 214.761719 295.234375 215.128906 295.175781 215.308594 Z M 286.125 217.722656 C 286.859375 218.457031 287.714844 218.945312 288.386719 219.097656 C 289 219.191406 289.425781 219.371094 289.335938 219.433594 C 289 219.800781 287.195312 219.066406 286.183594 218.210938 C 285.113281 217.265625 284.226562 215.707031 284.289062 214.882812 C 284.320312 214.667969 284.472656 214.972656 284.65625 215.554688 C 284.839844 216.136719 285.511719 217.113281 286.125 217.722656 Z M 294.960938 216.164062 C 294.960938 216.808594 292.726562 218.882812 291.71875 219.21875 C 291.109375 219.433594 290.589844 219.527344 290.496094 219.433594 C 290.40625 219.371094 290.742188 219.191406 291.199219 219.066406 C 292.332031 218.792969 294.011719 217.507812 294.410156 216.59375 C 294.777344 215.800781 294.960938 215.675781 294.960938 216.164062 Z M 152.507812 243.257812 C 152.75 243.503906 152.507812 246.617188 151.742188 254.070312 C 150.429688 266.75 150.183594 269.710938 149.570312 278.019531 C 149.328125 281.53125 149.050781 285.59375 148.929688 287.03125 C 148.835938 288.464844 148.808594 289.566406 148.898438 289.472656 C 148.992188 289.382812 149.570312 287.945312 150.183594 286.265625 C 152.382812 280.339844 154.800781 276.15625 157.550781 273.40625 C 159.753906 271.175781 161.34375 270.414062 163.820312 270.382812 C 166.417969 270.382812 168.007812 271.332031 169.171875 273.621094 C 170.242188 275.757812 170.363281 278.140625 169.78125 284.527344 C 168.894531 294.117188 169.171875 298.484375 170.667969 299.066406 C 171.554688 299.402344 173.480469 299.25 175.101562 298.730469 C 176.449219 298.300781 176.722656 298.269531 176.96875 298.667969 C 177.121094 298.914062 177.242188 299.1875 177.242188 299.277344 C 177.242188 299.613281 173.238281 301.601562 171.21875 302.273438 C 167.429688 303.554688 165.472656 302.945312 164.738281 300.285156 C 164.277344 298.605469 164.308594 291.460938 164.859375 285.199219 C 165.136719 281.835938 165.195312 279.425781 165.042969 278.691406 C 164.492188 276.308594 163.085938 275.210938 161.128906 275.574219 C 159.785156 275.820312 156.816406 278.601562 155.289062 281.011719 C 152.140625 286.023438 149.601562 293.628906 148.960938 299.921875 L 148.746094 301.96875 L 147.554688 302.121094 C 146.910156 302.210938 145.8125 302.394531 145.136719 302.484375 L 143.914062 302.667969 L 143.914062 300.714844 C 143.914062 298.882812 144.3125 291 145.292969 272.675781 C 145.535156 268.0625 145.964844 260.363281 146.207031 255.570312 C 146.851562 243.6875 146.851562 243.746094 147.828125 243.199219 C 148.746094 242.679688 151.957031 242.710938 152.507812 243.257812 Z M 72.488281 251.871094 C 72.980469 252.054688 73.253906 253.003906 74.109375 257.585938 C 79.707031 287.609375 82 295.828125 85.574219 298.421875 C 86.554688 299.15625 89.09375 299.433594 90.4375 298.972656 C 91.570312 298.578125 91.875 298.757812 91.996094 299.859375 C 92.089844 300.5 91.84375 300.683594 90.253906 301.355469 C 85.914062 303.097656 82.671875 303.402344 80.898438 302.210938 C 78.269531 300.441406 76.21875 295.125 73.4375 282.9375 L 73.253906 282.050781 L 66.925781 282.265625 C 63.4375 282.355469 59.800781 282.539062 58.851562 282.632812 L 57.140625 282.816406 L 56.007812 285.929688 C 55.398438 287.609375 53.960938 291.644531 52.796875 294.851562 C 51.667969 298.058594 50.503906 301.019531 50.230469 301.476562 C 49.925781 301.90625 49.28125 302.394531 48.761719 302.578125 C 47.417969 303.035156 44.878906 303.003906 44.664062 302.515625 C 44.605469 302.304688 46.5625 297.722656 49.039062 292.375 C 52.613281 284.554688 53.53125 282.328125 53.53125 281.226562 C 53.5625 280.066406 53.65625 279.851562 54.207031 279.761719 C 54.695312 279.699219 55.121094 279.027344 55.949219 277.164062 C 59.863281 268.277344 66.925781 253.613281 67.71875 252.726562 C 67.996094 252.390625 68.515625 252.027344 68.851562 251.871094 C 69.617188 251.566406 71.726562 251.566406 72.488281 251.871094 Z M 130.035156 268.582031 C 131.074219 269.285156 131.683594 270.566406 131.683594 271.972656 C 131.652344 273.253906 131.316406 273.835938 130.09375 274.628906 C 129.207031 275.210938 126.730469 275.394531 125.050781 274.996094 L 124.039062 274.78125 L 124.898438 276.554688 C 125.628906 278.109375 125.722656 278.691406 125.722656 281.378906 C 125.722656 284.160156 125.628906 284.617188 124.742188 286.480469 C 122.390625 291.460938 117.925781 294.359375 112.636719 294.359375 C 110.066406 294.359375 108.570312 294.878906 107.621094 296.132812 C 107.011719 296.894531 107.164062 298.148438 107.925781 298.851562 C 109.304688 300.105469 109.640625 300.226562 118.230469 302.273438 C 123.214844 303.433594 125.171875 304.195312 126.761719 305.539062 C 128.472656 307.007812 129.238281 308.59375 129.238281 310.640625 C 129.238281 314.519531 127.066406 318.09375 123.03125 320.84375 C 116 325.640625 104.535156 325.640625 99.121094 320.875 C 96.523438 318.613281 95.910156 315.007812 97.53125 311.710938 C 98.664062 309.417969 101.566406 306.730469 104.441406 305.328125 L 106.671875 304.226562 L 105.296875 303.433594 C 103.554688 302.394531 102.636719 300.957031 102.636719 299.25 C 102.636719 297.140625 103.617188 295.949219 107.101562 293.871094 C 107.621094 293.566406 107.558594 293.476562 106.367188 292.863281 C 102.421875 290.847656 100.253906 286.207031 101.046875 281.53125 C 101.78125 277.257812 104.441406 273.683594 108.234375 271.820312 C 112.390625 269.773438 115.785156 269.742188 120.433594 271.726562 C 123.703125 273.132812 124.285156 273.195312 126.058594 272.398438 C 127.558594 271.726562 128.261719 270.8125 128.535156 269.222656 C 128.71875 267.96875 128.933594 267.878906 130.035156 268.582031 Z M 206.320312 270.933594 C 208.09375 271.667969 209.5625 273.375 210.144531 275.363281 C 210.601562 276.890625 210.632812 277.835938 210.386719 282.90625 C 209.929688 292.496094 210.019531 296.773438 210.664062 297.964844 C 211.792969 300.042969 214.148438 300.683594 216.59375 299.585938 C 217.726562 299.066406 217.910156 299.035156 218.246094 299.460938 C 218.582031 299.859375 218.488281 300.074219 217.601562 300.804688 C 215.21875 302.761719 211.335938 303.464844 208.890625 302.332031 C 206.441406 301.234375 205.28125 299.066406 205.25 295.523438 C 205.21875 294.359375 205.1875 293.445312 205.160156 293.445312 C 205.128906 293.445312 204.394531 294.515625 203.539062 295.828125 C 201.703125 298.730469 198.890625 301.476562 196.902344 302.394531 C 195.925781 302.820312 194.824219 303.035156 193.601562 303.035156 C 189.566406 303.035156 186.933594 300.257812 186.933594 296.011719 C 186.964844 290.175781 192.46875 286.234375 202.101562 285.199219 C 203.8125 284.984375 205.28125 284.769531 205.371094 284.679688 C 205.710938 284.34375 205.710938 278.292969 205.402344 277.195312 C 204.546875 274.382812 201.734375 272.765625 198.308594 273.070312 C 194.242188 273.4375 192.746094 276.15625 194.519531 279.945312 L 195.253906 281.5625 L 194.488281 281.835938 C 192.59375 282.570312 190.328125 281.992188 189.59375 280.585938 C 187.699219 276.917969 191.828125 272.398438 198.585938 270.6875 C 200.695312 270.140625 204.761719 270.261719 206.320312 270.933594 Z M 253.253906 270.8125 C 255.457031 271.820312 256.679688 273.957031 256.953125 277.257812 C 257.015625 278.355469 256.894531 281.777344 256.617188 284.890625 C 255.792969 294.390625 256.007812 298.210938 257.351562 298.941406 C 258.207031 299.402344 260.195312 299.308594 261.816406 298.757812 C 262.582031 298.515625 263.40625 298.363281 263.652344 298.453125 C 264.597656 298.820312 263.957031 299.554688 261.722656 300.714844 C 257.320312 302.976562 253.957031 303.523438 252.644531 302.210938 C 251.144531 300.714844 250.902344 296.195312 251.695312 285.808594 C 252.214844 279.148438 252.0625 277.53125 250.71875 276.308594 C 250.167969 275.789062 249.617188 275.574219 248.667969 275.574219 C 246.191406 275.574219 243.410156 278.417969 240.6875 283.699219 C 238.148438 288.648438 236.5 294.269531 235.796875 300.226562 L 235.613281 301.9375 L 234.390625 302.121094 C 233.746094 302.210938 232.648438 302.394531 231.972656 302.484375 C 230.535156 302.699219 230.597656 303.003906 231.058594 297.414062 C 231.363281 293.78125 231.820312 281.625 231.820312 277.53125 C 231.820312 273.957031 230.8125 273.316406 226.804688 274.230469 C 225.765625 274.476562 225.398438 274.445312 225.1875 274.140625 C 224.789062 273.5 225.03125 272.886719 225.859375 272.644531 C 233.746094 270.261719 234.757812 270.109375 235.980469 271.117188 C 236.683594 271.695312 236.714844 271.847656 236.652344 275.789062 C 236.621094 278.019531 236.40625 282.050781 236.132812 284.738281 C 235.886719 287.425781 235.734375 289.65625 235.796875 289.71875 C 235.828125 289.78125 236.253906 288.617188 236.714844 287.183594 C 237.90625 283.457031 240.78125 277.773438 242.765625 275.269531 C 246.160156 270.933594 249.953125 269.3125 253.253906 270.8125 Z M 299.820312 270.566406 C 300.34375 270.75 300.769531 270.964844 300.769531 271.023438 C 300.769531 271.085938 299.636719 273.222656 298.292969 275.789062 C 294.226562 283.425781 289.488281 294.117188 284.566406 306.855469 C 280.34375 317.699219 278.386719 321.089844 275.207031 322.953125 C 270.589844 325.667969 264.75 322.433594 267.6875 318.796875 C 268.238281 318.125 268.269531 318.125 269.675781 318.613281 C 273.585938 319.925781 276.246094 318.308594 278.90625 312.992188 C 279.855469 311.101562 283.339844 302.820312 283.339844 302.457031 C 283.339844 302.394531 283.128906 302.304688 282.851562 302.242188 C 282.453125 302.179688 281.75 300.074219 279.976562 294.054688 C 276.953125 283.578125 274.597656 276.429688 273.769531 275.179688 C 272.914062 273.925781 271.570312 273.53125 269.492188 273.925781 C 267.871094 274.230469 267.351562 273.988281 267.535156 272.980469 C 267.625 272.429688 272.488281 270.839844 274.78125 270.628906 C 276.738281 270.445312 277.777344 271.054688 278.726562 272.917969 C 279.609375 274.660156 282.148438 282.816406 283.953125 289.71875 C 284.839844 293.109375 285.664062 295.796875 285.789062 295.675781 C 285.910156 295.550781 286.550781 293.84375 287.285156 291.917969 C 287.988281 289.992188 290.097656 284.554688 291.996094 279.851562 C 295.265625 271.695312 295.480469 271.269531 296.488281 270.78125 C 297.742188 270.140625 298.476562 270.109375 299.820312 270.566406 Z M 327.277344 270.6875 C 329.296875 271.300781 331.132812 273.101562 331.835938 275.179688 C 332.355469 276.828125 332.355469 277.316406 331.773438 291.304688 C 331.621094 295.1875 331.652344 295.917969 332.171875 297.261719 C 333.179688 299.949219 335.503906 300.835938 338.285156 299.585938 C 339.417969 299.035156 339.601562 299.035156 339.96875 299.460938 C 340.273438 299.859375 340.214844 300.042969 339.449219 300.652344 C 335.902344 303.496094 331.007812 303.617188 328.65625 300.929688 C 327.433594 299.554688 326.941406 297.996094 326.914062 295.367188 C 326.914062 294.148438 326.882812 293.140625 326.851562 293.140625 C 326.820312 293.140625 326.300781 294.054688 325.660156 295.1875 C 324.253906 297.722656 320.734375 301.324219 318.65625 302.332031 C 315.753906 303.738281 312.082031 303.066406 310.15625 300.804688 C 308.996094 299.433594 308.628906 297.933594 308.78125 295.429688 C 309.027344 291.734375 310.921875 289.320312 315.171875 287.367188 C 317.710938 286.175781 319.941406 285.625 323.792969 285.199219 C 325.507812 285.015625 326.972656 284.769531 327.066406 284.679688 C 327.15625 284.617188 327.25 283 327.308594 281.136719 C 327.402344 278.019531 327.339844 277.59375 326.667969 276.339844 C 326.269531 275.574219 325.351562 274.539062 324.648438 274.046875 C 323.457031 273.222656 323.121094 273.132812 320.859375 273.132812 C 318.777344 273.132812 318.167969 273.253906 317.21875 273.835938 C 315.324219 275.027344 314.925781 277.347656 316.210938 279.882812 C 316.640625 280.707031 316.851562 281.472656 316.699219 281.625 C 316.332031 281.992188 314.070312 282.265625 313.152344 282.019531 C 311.777344 281.683594 310.859375 280.402344 310.859375 278.875 C 310.859375 277.101562 311.53125 275.730469 313.121094 274.261719 C 316.546875 271.117188 323.121094 269.46875 327.277344 270.6875 Z M 327.277344 270.6875 " fill-opacity="1" fill-rule="nonzero"/></g><path fill="#492a28" d="M 39.375 111.457031 C 38.121094 115.246094 37.480469 118.328125 37.296875 121.476562 C 37.144531 124.5 37.175781 124.835938 38.0625 127.460938 C 38.582031 129.019531 39.773438 132.777344 40.75 135.863281 C 41.699219 138.949219 43.289062 143.589844 44.269531 146.1875 C 45.277344 148.78125 46.070312 151.195312 46.070312 151.5625 C 46.070312 152.691406 45.429688 154.21875 44.023438 156.328125 C 42.863281 158.128906 42.648438 158.710938 42.097656 161.917969 C 41.761719 163.902344 41.484375 165.828125 41.484375 166.222656 C 41.484375 167.230469 46.132812 178.015625 52.644531 192.1875 C 56.925781 201.472656 59.707031 207.949219 60.257812 209.78125 C 60.566406 210.941406 60.992188 211.675781 61.511719 212.011719 C 62.917969 212.929688 63.042969 213.507812 63.042969 219.21875 L 63.042969 224.566406 L 64.722656 225.117188 C 65.640625 225.453125 67.660156 225.816406 69.15625 225.96875 C 70.6875 226.125 73.164062 226.519531 74.660156 226.855469 C 76.1875 227.191406 79.0625 227.558594 81.082031 227.652344 C 84.414062 227.832031 84.8125 227.804688 85.484375 227.253906 C 86.15625 226.703125 86.1875 226.582031 85.851562 225.574219 C 85.332031 224.015625 83.375 221.054688 82.183594 220.042969 C 81.632812 219.585938 80.804688 219.160156 80.378906 219.066406 C 76.402344 218.273438 75.945312 217.570312 75.730469 211.429688 L 75.578125 207.15625 L 74.050781 206.972656 C 69.277344 206.390625 67.597656 203.0625 67.015625 192.953125 C 66.800781 189.132812 66.773438 189.011719 65.488281 187.027344 C 62.796875 182.71875 57.046875 170.53125 55.980469 166.714844 C 55.703125 165.765625 54.050781 162.101562 52.308594 158.589844 C 49.800781 153.546875 48.792969 151.042969 47.476562 146.828125 C 46.5625 143.894531 44.941406 138.792969 43.933594 135.527344 C 42.890625 132.257812 41.792969 128.316406 41.453125 126.820312 C 40.722656 123.460938 40.414062 118.695312 40.78125 117.046875 C 41.058594 115.945312 40.539062 110.019531 40.140625 109.65625 C 40.078125 109.5625 39.742188 110.386719 39.375 111.457031 Z M 39.375 111.457031 " fill-opacity="1" fill-rule="nonzero"/><path fill="#492a28" d="M 258.972656 142.367188 C 255.609375 143.621094 253.101562 145.574219 251.574219 148.082031 C 250.59375 149.761719 247.046875 152.96875 245.03125 154.007812 C 244.082031 154.496094 243.285156 155.015625 243.285156 155.136719 C 243.285156 155.289062 244.082031 156.234375 245.089844 157.273438 C 248.820312 161.246094 257.230469 171.386719 260.347656 175.691406 C 260.835938 176.335938 261.175781 177.617188 261.539062 180.0625 C 262.03125 183.328125 262.03125 183.910156 261.511719 190.292969 C 260.652344 201.199219 260.652344 201.839844 261.96875 204.558594 L 263.070312 206.878906 L 262.214844 207.644531 C 261.449219 208.347656 261.386719 208.558594 261.632812 209.445312 C 262.089844 211.003906 263.742188 213.601562 265.609375 215.617188 L 267.289062 217.449219 L 270.042969 217.722656 C 271.570312 217.84375 274.199219 218.179688 275.910156 218.457031 C 280.007812 219.066406 280.070312 219.035156 281.171875 218.121094 C 282.117188 217.355469 282.117188 217.296875 282.117188 214.453125 C 282.117188 210.882812 281.8125 210.210938 279.273438 208.40625 C 276.246094 206.269531 274.320312 204.039062 273.769531 202.085938 C 272.578125 197.960938 271.660156 191.242188 270.929688 181.496094 C 270.4375 174.714844 270.378906 174.320312 268.972656 169.585938 C 266.402344 160.941406 264.933594 155.6875 263.160156 148.691406 C 262.214844 144.902344 261.296875 141.789062 261.144531 141.757812 C 260.992188 141.695312 260.011719 141.972656 258.972656 142.367188 Z M 258.972656 142.367188 " fill-opacity="1" fill-rule="nonzero"/><path fill="#492a28" d="M 206.257812 147.5 C 205.863281 147.804688 205.710938 148.691406 205.554688 151.316406 L 205.402344 154.738281 L 206.382812 154.890625 C 208.734375 155.289062 209.285156 155.289062 210.171875 154.921875 C 211.210938 154.496094 212.097656 152.875 212.097656 151.410156 C 212.097656 150.25 211.089844 148.324219 210.203125 147.773438 C 209.257812 147.195312 206.839844 147.011719 206.257812 147.5 Z M 206.257812 147.5 " fill-opacity="1" fill-rule="nonzero"/><path fill="#492a28" d="M 194.121094 150.25 C 190.605469 151.652344 188.160156 152.480469 186.78125 152.664062 C 183.910156 153.027344 168.46875 154.34375 159.449219 154.984375 L 151.894531 155.503906 L 142.324219 154.191406 C 137.066406 153.488281 132.265625 152.816406 131.683594 152.722656 L 130.613281 152.539062 L 131.289062 153.304688 C 132.050781 154.097656 132.601562 156.449219 132.601562 158.769531 C 132.601562 159.992188 132.753906 160.453125 133.582031 161.335938 C 134.558594 162.496094 136.699219 163.78125 137.15625 163.503906 C 137.3125 163.414062 137.496094 162.925781 137.585938 162.4375 C 138.015625 160.296875 140.734375 158.375 145.261719 157.089844 C 148.53125 156.113281 151.132812 156.054688 152.722656 156.878906 C 154.035156 157.550781 159.632812 163.261719 160.335938 164.667969 C 160.609375 165.1875 160.824219 165.644531 160.855469 165.675781 C 160.886719 165.703125 161.710938 165.523438 162.71875 165.277344 C 163.726562 165.0625 165.164062 164.851562 165.929688 164.851562 C 167.640625 164.851562 170.636719 163.476562 186.445312 155.257812 C 189.59375 153.640625 192.777344 152.203125 193.539062 152.050781 C 194.824219 151.835938 197.515625 152.019531 198.890625 152.449219 C 199.441406 152.632812 199.503906 152.480469 199.6875 150.890625 C 199.808594 149.914062 199.960938 148.875 200.050781 148.570312 C 200.144531 148.265625 200.050781 148.050781 199.808594 148.082031 C 199.59375 148.082031 197.027344 149.058594 194.121094 150.25 Z M 194.121094 150.25 " fill-opacity="1" fill-rule="nonzero"/><path fill="#492a28" d="M 94.257812 151.714844 C 93.496094 152.539062 92.851562 153.363281 92.851562 153.515625 C 92.851562 154.066406 94.230469 154.21875 95.636719 153.851562 C 97.441406 153.363281 98.664062 152.691406 98.664062 152.234375 C 98.664062 151.835938 96.429688 150.1875 95.910156 150.1875 C 95.789062 150.1875 95.054688 150.859375 94.257812 151.714844 Z M 94.257812 151.714844 " fill-opacity="1" fill-rule="nonzero"/><path fill="#492a28" d="M 91.234375 157.121094 C 91.078125 157.855469 91.691406 159.015625 92.699219 159.960938 C 94.167969 161.335938 97.746094 160.757812 97.746094 159.167969 C 97.746094 158.191406 96.796875 157.671875 93.953125 157.089844 C 92.640625 156.816406 91.507812 156.601562 91.476562 156.601562 C 91.417969 156.601562 91.324219 156.847656 91.234375 157.121094 Z M 91.234375 157.121094 " fill-opacity="1" fill-rule="nonzero"/><path fill="#492a28" d="M 210.203125 159.535156 C 209.898438 160.175781 210.082031 161.613281 211.121094 167.691406 C 212.957031 178.289062 213.109375 179.390625 212.925781 181.984375 C 212.710938 185.253906 211.335938 187.636719 208.980469 188.859375 C 207.941406 189.378906 207.910156 189.621094 208.765625 190.386719 C 209.59375 191.117188 210.875 193.777344 210.875 194.785156 C 210.875 196.3125 210.203125 197.898438 208.554688 200.3125 C 205.28125 205.078125 198.644531 219.371094 198.644531 221.664062 L 198.644531 222.945312 L 199.65625 222.734375 C 200.96875 222.425781 201.917969 222.0625 202.101562 221.753906 C 202.191406 221.632812 202.347656 219.800781 202.4375 217.691406 C 202.589844 214.792969 202.773438 213.722656 203.171875 213.203125 C 203.445312 212.835938 205.679688 210.085938 208.125 207.09375 C 214.851562 198.878906 216.6875 196.433594 216.6875 195.699219 C 216.6875 195.332031 216.136719 194.113281 215.464844 192.980469 C 213.871094 190.324219 213.871094 189.316406 215.464844 184.03125 C 218.613281 173.648438 218.949219 167.140625 216.59375 163.414062 C 215.339844 161.429688 212.039062 158.742188 210.875 158.742188 C 210.691406 158.742188 210.386719 159.078125 210.203125 159.535156 Z M 210.203125 159.535156 " fill-opacity="1" fill-rule="nonzero"/><path fill="#492a28" d="M 90.867188 159.382812 C 90.773438 159.65625 90.804688 160.695312 90.988281 161.703125 C 91.445312 164.542969 94.441406 170.285156 104.625 187.757812 C 109.914062 196.859375 110.984375 198.96875 111.808594 202.207031 C 112.332031 204.34375 112.636719 204.863281 114.226562 206.636719 C 117.007812 209.78125 117.527344 210.210938 118.015625 209.78125 C 118.261719 209.597656 118.628906 208.589844 118.8125 207.519531 C 119.269531 205.261719 120.21875 203.121094 120.984375 202.726562 C 121.289062 202.574219 121.992188 202.449219 122.542969 202.480469 C 123.613281 202.511719 124.804688 201.992188 126.179688 200.921875 L 126.945312 200.3125 L 126.121094 199.457031 C 125.660156 198.96875 124.011719 197.839844 122.449219 196.921875 C 119.242188 194.996094 115.539062 191.667969 113.398438 188.707031 C 112.574219 187.605469 110.800781 185.164062 109.457031 183.328125 C 104.992188 177.191406 102.453125 172.027344 102.730469 169.644531 C 102.914062 168.332031 102.605469 168.085938 100.527344 167.8125 C 99.792969 167.722656 99.089844 167.539062 98.9375 167.386719 C 98.785156 167.230469 98.570312 166.253906 98.480469 165.1875 C 98.296875 163.566406 98.355469 163.199219 98.753906 162.957031 C 99.214844 162.710938 99.214844 162.621094 98.753906 161.671875 C 98.265625 160.632812 98.265625 160.632812 97.257812 161.0625 C 95.144531 161.949219 92.914062 161.367188 91.570312 159.597656 C 91.140625 159.015625 91.019531 158.984375 90.867188 159.382812 Z M 90.867188 159.382812 " fill-opacity="1" fill-rule="nonzero"/><path fill="#492a28" d="M 99.792969 160.480469 C 99.304688 160.941406 99.640625 161.824219 100.496094 162.253906 C 101.78125 162.894531 102.027344 162.832031 102.027344 161.796875 C 102.027344 161.0625 101.84375 160.789062 101.230469 160.574219 C 100.3125 160.207031 100.070312 160.207031 99.792969 160.480469 Z M 99.792969 160.480469 " fill-opacity="1" fill-rule="nonzero"/><path fill="#492a28" d="M 270.957031 42.699219 C 270.621094 42.882812 269.796875 43.707031 269.125 44.5625 C 268.449219 45.386719 267.6875 46.210938 267.410156 46.335938 C 267.042969 46.546875 258.878906 47.554688 257.597656 47.554688 C 257.167969 47.554688 257.628906 54.214844 258.148438 55.4375 C 258.757812 56.964844 260.777344 57.757812 264.078125 57.726562 C 267.929688 57.726562 269.828125 57.179688 274.71875 54.796875 L 279.152344 52.625 L 278.96875 49.695312 C 278.785156 46.242188 278.234375 44.746094 276.859375 43.890625 C 275.179688 42.851562 271.96875 42.210938 270.957031 42.699219 Z M 272.058594 46.363281 C 269.675781 46.761719 268.359375 47.464844 268.359375 48.351562 C 268.359375 48.746094 268.238281 49.082031 268.054688 49.082031 C 267.535156 49.082031 267.71875 47.679688 268.296875 47.160156 C 269 46.519531 270.652344 46.089844 272.335938 46.089844 L 273.710938 46.089844 Z M 268.085938 52.65625 C 269.519531 54.765625 270.285156 56.71875 269.703125 56.71875 C 269.550781 56.71875 269.398438 56.382812 269.398438 55.988281 C 269.335938 55.070312 267.410156 51.863281 265.945312 50.152344 C 265.085938 49.207031 265.058594 49.113281 265.730469 49.695312 C 266.21875 50.121094 267.257812 51.464844 268.085938 52.65625 Z M 268.085938 52.65625 " fill-opacity="1" fill-rule="nonzero"/><path fill="#492a28" d="M 66.894531 259.570312 C 64.632812 264.457031 63.226562 267.726562 60.71875 273.867188 L 58.300781 279.792969 L 63.4375 279.609375 C 66.253906 279.484375 69.492188 279.394531 70.65625 279.394531 C 72.214844 279.394531 72.703125 279.300781 72.582031 278.996094 C 72.519531 278.78125 71.601562 273.957031 70.53125 268.246094 C 69.492188 262.53125 68.546875 257.617188 68.421875 257.28125 C 68.269531 256.851562 67.902344 257.371094 66.894531 259.570312 Z M 66.894531 259.570312 " fill-opacity="1" fill-rule="nonzero"/><path fill="#492a28" d="M 111.078125 273.039062 C 109.394531 273.5 107.4375 275.546875 106.734375 277.59375 C 106 279.761719 106 283.546875 106.734375 285.839844 C 107.40625 287.976562 109.148438 290.328125 110.738281 291.246094 C 111.78125 291.824219 112.332031 291.917969 114.132812 291.855469 C 115.9375 291.765625 116.488281 291.613281 117.40625 290.910156 C 119.667969 289.199219 121.042969 284.707031 120.433594 281.105469 C 119.761719 276.917969 117.648438 273.988281 114.777344 273.132812 C 113.035156 272.613281 112.757812 272.613281 111.078125 273.039062 Z M 111.078125 273.039062 " fill-opacity="1" fill-rule="nonzero"/><path fill="#492a28" d="M 107.683594 306 C 104.410156 307.617188 102.636719 309.664062 102.027344 312.472656 C 100.160156 321.269531 113.308594 325.640625 121.074219 318.796875 C 122.449219 317.605469 123.734375 315.164062 123.949219 313.359375 C 124.253906 310.640625 122.878906 308.960938 119.242188 307.679688 C 117.894531 307.21875 109.882812 305.355469 109.273438 305.355469 C 109.058594 305.386719 108.355469 305.664062 107.683594 306 Z M 107.683594 306 " fill-opacity="1" fill-rule="nonzero"/><path fill="#492a28" d="M 199.6875 287.488281 C 196.292969 288.222656 194.183594 289.597656 193.082031 291.765625 C 191.949219 293.964844 192.46875 297.476562 194.027344 298.332031 C 195.191406 298.941406 197.210938 298.699219 198.675781 297.78125 C 201.367188 296.042969 204.300781 291.734375 205.035156 288.3125 L 205.3125 287.03125 L 203.414062 287.0625 C 202.40625 287.0625 200.695312 287.273438 199.6875 287.488281 Z M 199.6875 287.488281 " fill-opacity="1" fill-rule="nonzero"/><path fill="#492a28" d="M 321.410156 287.488281 C 317.890625 288.253906 315.476562 289.808594 314.652344 291.824219 C 314.164062 292.957031 314.101562 295.796875 314.527344 296.925781 C 315.230469 298.789062 317.863281 299.25 320.125 297.90625 C 322.96875 296.253906 326.117188 291.613281 326.636719 288.3125 L 326.851562 287.03125 L 325.046875 287.0625 C 324.039062 287.0625 322.417969 287.273438 321.410156 287.488281 Z M 321.410156 287.488281 " fill-opacity="1" fill-rule="nonzero"/></svg>